<svg width="23" height="25" viewBox="0 0 23 25" fill="none" xmlns="http://www.w3.org/2000/svg">
<path d="M7.41353 20.3648C7.29486 20.7171 7.10832 21.0428 6.86439 21.3237C6.62361 21.599 6.32847 21.8218 5.99745 21.9782C5.64106 22.1477 5.25077 22.2345 4.85594 22.2318C4.47286 22.2315 4.0948 22.1448 3.75003 21.9782C3.4161 21.8196 3.11842 21.5942 2.87546 21.3161C2.62676 21.0314 2.43206 20.7039 2.30089 20.3496C2.1616 19.9746 2.09183 19.5775 2.09497 19.1776V19.1421C2.09305 18.7463 2.15661 18.3529 2.2831 17.9778C2.39908 17.6243 2.58591 17.298 2.83224 17.0189C3.07511 16.7484 3.36991 16.5293 3.69918 16.3746C4.04966 16.2062 4.4339 16.1194 4.82289 16.1209C5.10583 16.1188 5.38731 16.1616 5.65678 16.2477C5.78854 15.6125 6.02021 15.002 6.34321 14.439C5.86205 14.2928 5.36146 14.2201 4.85848 14.2234C4.19048 14.2163 3.52853 14.3503 2.91614 14.6166C2.34323 14.8697 1.82514 15.2315 1.39074 15.682C0.49152 16.6188 -0.0072031 17.8678 7.86309e-05 19.1649V19.2106C-0.00312361 19.8606 0.120353 20.5051 0.363635 21.1081C0.671082 21.8499 1.15852 22.5038 1.7821 23.011C2.40567 23.5181 3.14583 23.8627 3.93599 24.0136C4.72615 24.1646 5.54151 24.1172 6.30875 23.8757C7.07598 23.6342 7.77101 23.2061 8.33132 22.6301C8.76598 22.1769 9.111 21.6459 9.34825 21.0649C9.44619 20.8239 9.52441 20.5753 9.58215 20.3217C8.84988 20.1251 8.17469 19.7582 7.61183 19.2512C7.60649 19.6306 7.53952 20.0067 7.41353 20.3648V20.3648Z" fill="url(#paint0_radial)"/>
<path d="M22.8811 16.7905C22.84 16.4931 22.7814 16.1983 22.7057 15.9077L22.6854 15.8316C22.6101 15.5565 22.5201 15.2855 22.4159 15.0199C22.3345 14.8119 22.2481 14.6039 22.1464 14.4009C22.0447 14.198 21.9735 14.0635 21.8769 13.8936C21.7803 13.7236 21.7015 13.6019 21.6074 13.4573C21.5133 13.3127 21.432 13.2036 21.3379 13.0717C21.2439 12.9398 21.1879 12.8687 21.1091 12.7698L21.071 12.7242C20.9845 12.6176 20.8956 12.5111 20.8015 12.4096L20.7862 12.3918L20.532 12.1382L20.504 12.1103L20.2625 11.8769L19.993 11.6232L19.9778 11.608L19.7235 11.3746L19.4693 11.1514L19.4515 11.1362L19.182 10.8977L18.9761 10.7202L18.9125 10.6669L18.6431 10.436L18.4905 10.3041L18.3761 10.2052L18.1066 9.97182L18.0049 9.88304L17.8397 9.73845L17.5702 9.48477L17.5066 9.42643L17.3032 9.23364C17.2117 9.14485 17.1202 9.0586 17.0338 8.97997L16.9651 8.9064C16.8965 8.83537 16.8304 8.76435 16.7668 8.69332C16.7032 8.62229 16.5838 8.4777 16.4973 8.36862C16.4109 8.25954 16.3117 8.11495 16.2278 7.98811V7.97543C16.1326 7.82312 16.0477 7.66464 15.9736 7.50106C15.9482 7.44779 15.9304 7.38945 15.9075 7.33364C15.8188 7.11902 15.7507 6.89648 15.7041 6.66902C15.6812 6.55233 15.6685 6.41535 15.6558 6.30373C15.6359 6.10992 15.6283 5.91506 15.6329 5.72029C15.6329 5.70253 15.6329 5.68478 15.6329 5.66448C15.6329 5.53004 15.6583 5.41081 15.6812 5.27383C15.6812 5.22817 15.699 5.17997 15.7066 5.13431C15.7143 5.08865 15.7422 4.9745 15.7626 4.89839C15.7829 4.82229 15.8287 4.67516 15.8694 4.57116C15.91 4.46715 15.938 4.40627 15.9736 4.31749L15.9939 4.27183C16.0372 4.18304 16.0855 4.09679 16.1363 4.01815C16.1872 3.93952 16.2049 3.91161 16.2405 3.86088L16.2914 3.78985C16.3448 3.71882 16.4007 3.65033 16.4592 3.58438L16.51 3.52857C16.5954 3.43943 16.6854 3.35476 16.7795 3.2749C16.866 3.1988 16.9575 3.12777 17.049 3.05928C17.1405 2.99079 17.227 2.93244 17.3185 2.87663C17.41 2.82083 17.4965 2.77009 17.588 2.72189C17.6795 2.6737 17.7659 2.63057 17.8575 2.58999C17.949 2.5494 18.038 2.50881 18.127 2.47329L18.3964 2.37436L18.6659 2.29065L18.9354 2.21709L19.2049 2.15621L19.4744 2.10547L19.7439 2.06742C19.8583 2.0522 19.9498 2.04459 20.0134 2.03952H20.1074L20.0134 1.98625L19.7439 1.83658L19.4642 1.70721L19.1947 1.5753L18.9278 1.45354L18.6583 1.34192L18.3888 1.24045L18.1193 1.14913L17.8498 1.06796L17.5829 0.991855L17.3287 0.93351L17.0592 0.887849L16.7897 0.854872L16.5202 0.837115H16.2507C16.1592 0.837115 16.0702 0.837115 15.9812 0.837115C15.8922 0.837115 15.8007 0.852336 15.7117 0.865019C15.6228 0.877703 15.5312 0.892923 15.4422 0.91068C15.3533 0.928437 15.2617 0.94873 15.1728 0.971561H15.1346C15.0567 0.993546 14.9795 1.01722 14.9033 1.04259C14.8245 1.07049 14.7482 1.0984 14.6745 1.12884L14.6389 1.14406L14.4533 1.23031L14.3719 1.27089L14.2397 1.34192L14.105 1.42056L14.0313 1.46622C13.9651 1.50935 13.8991 1.55247 13.8355 1.59813C13.7694 1.64633 13.7033 1.69706 13.6397 1.7478L13.5762 1.80107L13.4516 1.91015L13.3092 2.04205L13.2685 2.08264C13.2075 2.14352 13.1491 2.20694 13.0906 2.26782L13.0423 2.32109L12.9177 2.46569L12.7728 2.64579L12.7525 2.6737C12.6965 2.74811 12.6431 2.82167 12.5923 2.89439L12.5058 3.02376L12.4397 3.12777C12.3872 3.21063 12.3381 3.29519 12.2923 3.38144L12.2389 3.47784L12.1525 3.64018C12.1042 3.73404 12.0584 3.82536 12.0177 3.91161L11.972 4.01308L11.8906 4.19826C11.8423 4.31241 11.8042 4.41388 11.7711 4.50013C11.7381 4.58638 11.7203 4.64726 11.7025 4.70053C11.6847 4.7538 11.6694 4.80961 11.6643 4.82483C11.6643 4.66502 11.6821 4.51028 11.6999 4.35807V4.31241C11.7152 4.18558 11.733 4.05874 11.7559 3.93952C11.7787 3.82029 11.8067 3.68584 11.8372 3.56408C11.8677 3.44232 11.9008 3.33324 11.9364 3.22163L11.9694 3.1227C11.9948 3.04913 12.0228 2.9781 12.0482 2.90707C12.0737 2.83605 12.1296 2.70921 12.1728 2.61535L12.2364 2.48344L12.3075 2.34646C12.3533 2.26021 12.4016 2.17396 12.4499 2.09279L12.5058 2.004L12.6025 1.85687C12.6533 1.78077 12.7067 1.70467 12.7601 1.63111L12.7728 1.61335C12.8236 1.54739 12.8719 1.48144 12.9228 1.42056L13.0397 1.28358L13.0931 1.22269C13.1524 1.15674 13.2109 1.09417 13.2685 1.03498L13.3067 0.996928L13.4516 0.85741L13.5762 0.743256L13.6397 0.68745L13.8304 0.527636H13.8457L14.0287 0.390654L14.1151 0.327236L14.2296 0.248598L14.3846 0.149666L14.438 0.119226C14.5524 0.0507346 14.6287 0.0126836 14.6516 0C14.5651 0 14.4787 0.0152199 14.3973 0.0253668L14.1431 0.055808H14.1279L13.8914 0.0938581H13.8584L13.6474 0.142056L13.5914 0.15474L13.4058 0.200401L13.3245 0.225767L13.1719 0.273965L13.0575 0.309479L12.9406 0.352603L12.7906 0.408411L12.7118 0.438851L12.5211 0.520026L12.488 0.535246C12.4143 0.568223 12.3406 0.601201 12.2669 0.636715H12.2516L12.0508 0.743256L11.9821 0.77877L11.8372 0.859947L11.7126 0.936047L11.6287 0.986782L11.4457 1.10854L11.4254 1.12123C11.3567 1.16689 11.2906 1.21255 11.2245 1.26075L11.1787 1.29626L11.0313 1.41295L10.9118 1.50681L10.8381 1.57023L10.6499 1.73511L10.4745 1.90253L10.383 1.99386L10.294 2.08264C10.233 2.14606 10.1771 2.20948 10.1186 2.27543L9.9508 2.46822L9.84911 2.59506L9.78301 2.67623C9.72707 2.74726 9.67623 2.82336 9.62284 2.89693L9.57962 2.95781L9.46521 3.12777C9.41437 3.20641 9.36352 3.28504 9.31521 3.36622C9.26691 3.44739 9.22115 3.53111 9.17538 3.61989C9.12962 3.70868 9.08895 3.78478 9.04573 3.87356V3.89132C8.99996 3.98264 8.95675 4.0765 8.91607 4.17036C8.87539 4.26422 8.83217 4.36568 8.79403 4.46715V4.48491C8.7559 4.58384 8.72285 4.68531 8.6898 4.78424C8.65675 4.88317 8.62116 5.01001 8.59065 5.12416C8.56014 5.23831 8.54489 5.29666 8.52709 5.37783C8.52709 5.41335 8.51183 5.44886 8.50421 5.48437C8.47709 5.61628 8.45421 5.74904 8.43557 5.88264C8.41692 6.01624 8.40082 6.16421 8.38726 6.32656C8.38726 6.49399 8.36947 6.66141 8.37201 6.83391C8.37498 7.03994 8.38855 7.24568 8.41268 7.45033C8.438 7.67555 8.4762 7.89915 8.52709 8.12002C8.54234 8.18344 8.56014 8.24939 8.57794 8.31281C8.63792 8.53754 8.71092 8.75861 8.79658 8.97489C8.87657 9.17127 8.96652 9.36346 9.06607 9.55073C9.10928 9.6319 9.14996 9.71561 9.19572 9.8044C9.24149 9.89318 9.28725 9.9566 9.33301 10.0302C9.41945 10.1697 9.50843 10.3016 9.6025 10.4259C9.64572 10.4842 9.69148 10.5426 9.73724 10.5984L9.87199 10.7607C9.96012 10.8622 10.0499 10.9594 10.1415 11.0525C10.2042 11.1167 10.2686 11.1776 10.3347 11.2351L10.411 11.3036C10.4999 11.3797 10.5889 11.4533 10.6805 11.5243L10.7974 11.608L10.9474 11.7145C11.0321 11.7704 11.1169 11.8245 11.2016 11.8769C11.2898 11.9293 11.3796 11.9784 11.4711 12.024L11.5677 12.0722L11.7406 12.1559L11.9237 12.2396L12.0076 12.2752L12.2618 12.3766L12.5313 12.473L12.5821 12.4908L12.7982 12.5618L12.9075 12.5948L13.0677 12.643L13.2279 12.6886L13.3372 12.7191L13.5457 12.7749L13.6067 12.7901L13.8609 12.8535H13.8762L14.1457 12.9195H14.1736L14.4151 12.9778L14.4838 12.9956L14.6821 13.0438L14.794 13.0717L14.949 13.1097L15.1041 13.1478L15.216 13.1757L15.4168 13.2264L15.4855 13.2442L15.7397 13.3101H15.7626L16.0321 13.3837H16.06L16.3016 13.4547L16.3804 13.4801L16.571 13.5384L16.7058 13.5816L16.8405 13.6247L17.0338 13.6906L17.11 13.7185L17.3643 13.8099L17.6337 13.9139L17.6922 13.9367L17.9032 14.023L18.038 14.0788L18.1727 14.1371L18.3914 14.2335L18.4422 14.2563C18.5337 14.2995 18.6176 14.3426 18.6964 14.3857L18.7397 14.406L18.9659 14.5303L19.121 14.6165L19.2354 14.6901C19.3295 14.7485 19.4185 14.8068 19.5049 14.8677L19.5329 14.888C19.6168 14.9463 19.6981 15.0072 19.7744 15.0681C19.8507 15.129 19.9193 15.1848 19.9879 15.2457L20.0439 15.2964C20.1388 15.3826 20.2286 15.4672 20.3134 15.5501C20.4049 15.649 20.4939 15.7454 20.5676 15.8469C20.6641 15.9689 20.754 16.0959 20.8371 16.2274C21.0707 16.5936 21.2472 16.993 21.3608 17.412L21.3761 17.4678C21.4399 17.7175 21.4824 17.972 21.5032 18.2288C21.5184 18.4161 21.5226 18.6042 21.5159 18.792C21.5159 18.9645 21.4956 19.1192 21.4778 19.2537C21.46 19.3881 21.4295 19.5555 21.4066 19.6494C21.3939 19.7052 21.3812 19.7483 21.3761 19.7762V19.8016C21.3761 19.7027 21.3583 19.6088 21.3481 19.5124C21.3203 19.2418 21.2753 18.9732 21.2134 18.7083C21.1845 18.5882 21.1523 18.4715 21.1167 18.3582C21.0436 18.1229 20.9535 17.8931 20.8473 17.6707C20.7672 17.5016 20.6772 17.3373 20.5778 17.1786C20.4945 17.0456 20.4046 16.917 20.3083 16.793C20.249 16.7169 20.1888 16.6442 20.1278 16.5749L20.0413 16.481C19.9549 16.3872 19.8659 16.2984 19.7718 16.2147C19.6778 16.131 19.6524 16.1107 19.5939 16.0599L19.5049 15.9864C19.4159 15.9179 19.3269 15.8519 19.2354 15.7885L19.1566 15.7327L18.9685 15.6135L18.7651 15.4968L18.699 15.4613C18.61 15.4131 18.521 15.3699 18.4295 15.3268L18.399 15.3116L18.1625 15.2076L18.0507 15.1619L17.8931 15.1011L17.7176 15.0402L17.6236 15.0097L17.3948 14.9412H17.3541L17.0846 14.8728L16.8304 14.8169H16.7897L16.5609 14.7789H16.4922L16.2939 14.7535H16.2278H16.2049L16.027 14.7358H15.9177H15.7575H15.638H15.4956H14.5245H14.4177H14.2702H14.1482L13.9855 14.718L13.8787 14.7028L13.6906 14.6749L13.6118 14.6622C13.533 14.647 13.4592 14.6242 13.3804 14.6039H13.3423C13.2508 14.5785 13.1618 14.5531 13.0728 14.5227H13.0575C12.9736 14.4922 12.8872 14.4643 12.8033 14.4288H12.7779L12.7194 14.4035L12.6431 14.3705L12.5364 14.3172L12.3559 14.2259L12.2669 14.1726C12.1753 14.1202 12.0855 14.0635 11.9974 14.0027L11.9567 13.9748C11.8787 13.9206 11.8033 13.8648 11.7304 13.8073C11.6576 13.7498 11.5813 13.6856 11.5016 13.6145L11.4609 13.579C11.3694 13.4953 11.2779 13.4065 11.1915 13.3254C11.105 13.2442 11.0084 13.1173 10.922 13.0083L10.894 12.9702C10.8584 12.9246 10.8228 12.8789 10.7898 12.8307C10.7567 12.7825 10.6982 12.6937 10.655 12.6252C10.4446 12.2937 10.274 11.9387 10.1466 11.5674H10.1135C10.0516 11.5777 9.99043 11.5921 9.93046 11.6105L9.84402 11.6435C9.81097 11.6435 9.77792 11.6663 9.74741 11.6816L9.70674 11.7069C9.66201 11.7315 9.61871 11.7586 9.57707 11.7881L9.50335 11.8414C9.43724 11.8942 9.37599 11.9528 9.3203 12.0164V12.0316C9.26487 12.096 9.21471 12.1647 9.1703 12.2371C9.12493 12.3111 9.085 12.3882 9.05081 12.4679L9.03556 12.5085C8.99234 12.618 8.95832 12.7308 8.93386 12.8459C8.90297 12.9852 8.88425 13.127 8.87793 13.2696C8.87171 13.3768 8.87171 13.4844 8.87793 13.5917L8.79403 13.6551L8.77624 13.6678L8.64658 13.7642L8.59573 13.7997L8.50675 13.8631L8.39997 13.9519C8.34404 14.001 8.28981 14.0525 8.23726 14.1067L8.21693 14.1295C8.15626 14.1938 8.09939 14.2616 8.04659 14.3324V14.3324L7.92201 14.3908L7.83303 14.4999C7.7771 14.5709 7.72371 14.6444 7.67287 14.718L7.65507 14.7408C7.60676 14.8093 7.56354 14.8804 7.51778 14.9514C7.47202 15.0224 7.4288 15.1011 7.38558 15.1772L7.37287 15.2025C7.32541 15.2905 7.2805 15.3809 7.23812 15.474C7.19575 15.567 7.15507 15.6625 7.11609 15.7606C7.07541 15.8655 7.03897 15.9728 7.00677 16.0828C6.97457 16.1927 6.94406 16.3111 6.91525 16.4379C6.89999 16.5039 6.88474 16.5724 6.87203 16.6408C6.85957 16.7112 6.85362 16.7825 6.85423 16.8539C6.84502 16.9537 6.86394 17.0541 6.90886 17.1438C6.95378 17.2334 7.02292 17.3087 7.10847 17.3613V17.3613C7.15898 17.3852 7.21309 17.4006 7.26863 17.4069L7.37287 17.4323H7.41863L7.64235 17.4805L7.72371 17.4932L7.91185 17.5211H8.01608L8.18133 17.5363H8.29828H8.44065H8.57031H8.71777H8.83726L8.98725 17.5185L9.09403 17.5059H9.13471L9.2542 17.483L9.34064 17.4653L9.52114 17.4221L9.58216 17.4069L9.78809 17.346H9.81605L10.0449 17.2623L10.2584 17.171L10.3118 17.1456L10.4745 17.0619L10.5788 17.0061L10.6855 16.9427L10.8482 16.8412L10.8915 16.8108L11.0516 16.6992L11.0923 16.6662L11.1177 16.6434C11.1737 16.6003 11.2271 16.5521 11.283 16.5064L11.3872 16.4201L11.4737 16.3415C11.5347 16.2832 11.5931 16.2172 11.6516 16.1563C11.6999 16.1056 11.7508 16.0574 11.7965 16.0067L11.8296 15.9813L11.9211 15.9128H11.9338C11.9338 15.9458 11.9338 15.9813 11.9211 16.0143C11.9084 16.0473 11.9211 16.0954 11.9008 16.136C11.8784 16.2564 11.8479 16.375 11.8092 16.4912C11.7753 16.5932 11.7354 16.6931 11.6898 16.7905L11.6542 16.8641C11.622 16.9283 11.5872 16.9901 11.5499 17.0493C11.5022 17.1288 11.4505 17.2058 11.3948 17.2801V17.2801C11.344 17.346 11.2881 17.4095 11.2321 17.4678L11.1254 17.5744L11.0491 17.6428C10.9873 17.6961 10.9228 17.746 10.8559 17.7925V17.7925C10.7888 17.8386 10.7192 17.881 10.6474 17.9193L10.5889 17.9523C10.5364 17.9794 10.483 18.0039 10.4288 18.0259L10.322 18.0639L10.2406 18.0918H10.1949L10.0525 18.1299L9.95588 18.1553L9.78555 18.1933L9.71182 18.2111L9.51606 18.2517H9.46521L9.24911 18.2897H9.21606L8.98217 18.3227H8.96183L8.70759 18.3455C8.64329 18.3507 8.57868 18.3507 8.51438 18.3455C8.5786 18.4058 8.64745 18.4609 8.72031 18.5104L8.82963 18.584L8.98979 18.6829C9.05844 18.7235 9.13217 18.7615 9.21352 18.8021L9.25928 18.825C9.34318 18.8655 9.43216 18.9061 9.52877 18.9442L9.56691 18.9594C9.64063 18.9873 9.7169 19.0152 9.79826 19.0406L9.89487 19.0685L10.0677 19.1141L10.2076 19.142L10.3372 19.1674L10.505 19.1877L10.6067 19.2004H10.7898H11.1457L11.3262 19.1877H11.4126L11.5804 19.1649L11.6821 19.1446L11.827 19.1116L11.9516 19.0837H11.9745C12.005 19.0837 12.0355 19.0609 12.0635 19.0482C12.1166 19.0287 12.1684 19.0058 12.2186 18.9797L12.2821 18.9442C12.3521 18.9022 12.4192 18.8556 12.483 18.8047C12.5476 18.7538 12.6095 18.6996 12.6686 18.6423L12.7525 18.5586L12.8465 18.4546C12.905 18.3861 12.9609 18.3176 13.0143 18.2466C13.0677 18.1756 13.116 18.102 13.1643 18.0284C13.2126 17.9549 13.2431 17.8991 13.2787 17.8382L13.3067 17.795C13.355 17.7139 13.4058 17.6352 13.4592 17.5591C13.5126 17.483 13.5152 17.4703 13.5482 17.4298C13.5813 17.3892 13.5991 17.374 13.6219 17.3435C13.6779 17.275 13.7338 17.2065 13.7923 17.1431L13.8152 17.1152C13.866 17.0619 13.9219 17.0188 13.9753 16.9681L14.0821 16.8717C14.1101 16.8489 14.1329 16.8235 14.1609 16.8007C14.1889 16.7778 14.2855 16.7169 14.349 16.6738H14.3643C14.4329 16.6282 14.499 16.5825 14.5702 16.5419L14.6185 16.5191C14.6745 16.4886 14.7304 16.4633 14.7889 16.4354L14.888 16.3872L15.0101 16.3364L15.155 16.2882L15.2414 16.2578C15.3024 16.2375 15.3609 16.2172 15.4219 16.202H15.4778C15.5465 16.1842 15.6177 16.1716 15.6914 16.1589H15.7244L15.9583 16.1234H15.9787C16.06 16.1234 16.1439 16.1056 16.2329 16.1005H16.3321L16.2405 16.1234H16.2227C16.149 16.1411 16.0753 16.1614 16.0016 16.1817L15.9558 16.1969C15.8948 16.2172 15.8312 16.2375 15.7702 16.2603L15.6863 16.2959L15.5465 16.3567L15.4194 16.4201L15.3304 16.4658L15.1499 16.5698L15.1194 16.5901C15.0507 16.6332 14.9821 16.6789 14.916 16.7271L14.8804 16.755C14.827 16.7956 14.7736 16.8362 14.7202 16.8793L14.6109 16.9757L14.5321 17.0467C14.4711 17.1051 14.4126 17.1685 14.3541 17.2319L14.3058 17.2826C14.2651 17.3283 14.2321 17.3765 14.194 17.4247C14.1558 17.4729 14.1177 17.516 14.0846 17.5617L14.0313 17.6378C13.977 17.7156 13.9262 17.7942 13.8787 17.8737L13.8152 17.9853C13.7872 18.0335 13.7643 18.0842 13.7389 18.135C13.6931 18.2297 13.6507 18.3252 13.6118 18.4216C13.5889 18.4774 13.566 18.5307 13.5457 18.5865C13.5253 18.6423 13.5152 18.688 13.4999 18.7387C13.4643 18.8571 13.4346 18.9763 13.4109 19.0964C13.271 19.8006 13.3184 20.5291 13.5482 21.2095C13.6208 21.4188 13.711 21.6216 13.8177 21.8157C13.9645 22.0904 14.1447 22.346 14.3541 22.5768V22.5768C14.4177 22.6452 14.4787 22.7137 14.5473 22.7797L14.6134 22.838C14.6668 22.8837 14.7177 22.9319 14.7711 22.975L14.6134 22.9167L14.5092 22.8837C14.4584 22.8685 14.4024 22.8558 14.3465 22.8456L14.2067 22.8253H14.077H13.927H13.7338H13.6601L13.5406 22.838L13.4058 22.8583L13.2711 22.8888L13.1618 22.9167C13.1058 22.9344 13.055 22.9547 13.0016 22.975L12.933 23.0004C12.865 23.0304 12.7988 23.0643 12.7347 23.1019H12.7194C12.6494 23.1448 12.5823 23.1923 12.5186 23.2439L12.4677 23.287C12.4194 23.3276 12.3762 23.3707 12.333 23.4139C12.2855 23.4623 12.2406 23.5131 12.1982 23.5661L12.1626 23.6117C12.1067 23.687 12.0558 23.7658 12.0101 23.8476C11.9796 23.9009 11.9542 23.9542 11.9313 24.0024C11.9084 24.0506 11.8931 24.0861 11.8779 24.1241C11.842 24.2122 11.8131 24.303 11.7915 24.3956L11.9287 24.426L12.0406 24.4488L12.1957 24.4793L12.3406 24.5047L12.4626 24.5249L12.638 24.5529L12.7321 24.5681L12.933 24.596H13.0016L13.2228 24.6239H13.2685L13.5101 24.6492H13.538L13.7923 24.6721L14.0618 24.6898H14.316H14.8778H15.1321H15.155H15.4092H15.4321L15.6863 24.667H15.7016L15.9558 24.6416L16.21 24.6061L16.4643 24.5655H16.4897L16.7134 24.5249H16.7592L16.9575 24.4793L17.0261 24.4641L17.199 24.4184L17.2956 24.393L17.438 24.3525L17.5626 24.3119L17.6719 24.2764L17.7431 24.2535L17.832 24.2256L17.9058 24.2028L18.099 24.1419L18.1397 24.1292L18.3659 24.0531L18.5947 23.9669L18.6303 23.9542L18.821 23.8781L18.8973 23.8426L19.0422 23.7766L19.1668 23.7208L19.2634 23.6752L19.4363 23.5813L19.4769 23.5585C19.5481 23.5204 19.6219 23.4824 19.6905 23.4418H19.7032C19.7693 23.4037 19.8329 23.3606 19.8964 23.32L19.9727 23.2718L20.1024 23.1881L20.2396 23.0866L20.3007 23.041C20.3668 22.9928 20.4354 22.9446 20.499 22.8938C20.5625 22.8431 20.621 22.7924 20.6795 22.7416L20.7659 22.6681L20.8676 22.5768C20.9261 22.5235 20.9795 22.4677 21.0354 22.4144L21.0506 22.3992C21.1117 22.3383 21.1701 22.2774 21.2286 22.214L21.3023 22.1303L21.4015 22.0187C21.46 21.9502 21.5133 21.8817 21.5693 21.8107C21.6227 21.7396 21.6786 21.6711 21.7294 21.6001C21.7803 21.5291 21.8006 21.4936 21.8362 21.4378L21.8845 21.3667C21.9354 21.2873 21.9854 21.2027 22.0345 21.1131L22.1057 20.9862C22.1286 20.9431 22.154 20.9025 22.1769 20.8594C22.2252 20.7681 22.2659 20.6768 22.3091 20.5829C22.3294 20.5372 22.3523 20.4916 22.3727 20.4459C22.393 20.4002 22.4133 20.3444 22.4337 20.2937C22.4744 20.1922 22.515 20.0908 22.5506 19.9868C22.5862 19.8828 22.6142 19.7965 22.6421 19.7001L22.6549 19.6595C22.6879 19.5403 22.7184 19.4211 22.7438 19.2993C22.7693 19.1776 22.7972 19.0456 22.8176 18.9087C22.8379 18.7717 22.8582 18.6246 22.8735 18.4825C22.8888 18.3404 22.8989 18.1654 22.904 18.0056C22.9091 17.8458 22.904 17.6428 22.904 17.4627C22.9345 17.2319 22.9218 17.0112 22.8811 16.7905ZM9.31013 15.2685C9.31283 15.2955 9.31283 15.3227 9.31013 15.3497V15.3497C9.30285 15.3869 9.28999 15.4228 9.27199 15.4562C9.25111 15.4953 9.22358 15.5305 9.19064 15.5602C9.1434 15.6057 9.08444 15.6374 9.0203 15.6515H8.96691C8.88416 15.6563 8.80233 15.632 8.73556 15.583C8.71217 15.5661 8.69084 15.5465 8.672 15.5247C8.63327 15.4799 8.60516 15.427 8.58976 15.3699C8.57435 15.3128 8.57205 15.253 8.58302 15.1949C8.60412 15.1007 8.65821 15.017 8.73556 14.959C8.77206 14.9318 8.8135 14.912 8.85759 14.9007H8.87539C8.96287 14.8867 9.0525 14.9028 9.12962 14.9463L9.16013 14.9666C9.20743 15.0021 9.24574 15.0481 9.27199 15.1011C9.2995 15.1545 9.31429 15.2135 9.31521 15.2736L9.31013 15.2685Z" fill="url(#paint1_radial)"/>
<defs>
<radialGradient id="paint0_radial" cx="0" cy="0" r="1" gradientUnits="userSpaceOnUse" gradientTransform="translate(-0.162363 24.1889) scale(23.4053 10.219)">
<stop stop-color="#2B3990"/>
<stop offset="1" stop-color="#1B75BC"/>
</radialGradient>
<radialGradient id="paint1_radial" cx="0" cy="0" r="1" gradientUnits="userSpaceOnUse" gradientTransform="translate(6.57968 24.9121) scale(39.25 25.5452)">
<stop stop-color="#2B3990"/>
<stop offset="1" stop-color="#1B75BC"/>
</radialGradient>
</defs>
</svg>
