<svg width="84" height="27" viewBox="0 0 84 27" fill="none" xmlns="http://www.w3.org/2000/svg">
<g clip-path="url(#clip0)">
<path d="M8.35206 18.0023C7.99103 17.6866 7.57823 17.4352 7.13174 17.2591C6.58206 17.0366 6.0181 16.851 5.44363 16.7035C4.86736 16.5598 4.3911 16.4228 4.01483 16.2926C3.70332 16.192 3.40664 16.0504 3.13264 15.8715C2.94047 15.7471 2.78719 15.5713 2.69027 15.3642C2.6058 15.1627 2.56424 14.9458 2.56824 14.7274V14.6919C2.56624 14.4889 2.61106 14.2881 2.69922 14.1052C2.78739 13.9222 2.91655 13.7619 3.07671 13.6367C3.49402 13.3278 4.00725 13.176 4.52584 13.2079C5.08897 13.2106 5.64611 13.3235 6.16565 13.5403C6.75151 13.7878 7.30272 14.1101 7.80546 14.4991L8.94442 12.8351C8.34927 12.3375 7.6758 11.9415 6.95123 11.6631C6.18591 11.3845 5.37601 11.2478 4.56143 11.2598C3.99838 11.2541 3.43853 11.345 2.90637 11.5286C2.43038 11.6911 1.99018 11.9434 1.60978 12.2719C1.24943 12.59 0.96087 12.9808 0.76318 13.4185C0.554367 13.8825 0.449391 14.3863 0.455557 14.8949V14.9304C0.441752 15.4331 0.532651 15.9332 0.722503 16.3991C0.896415 16.7991 1.16305 17.1521 1.50046 17.429C1.88356 17.7331 2.31263 17.9746 2.77163 18.1444C3.33248 18.3596 3.90758 18.5359 4.49279 18.672C4.95897 18.7746 5.41831 18.9059 5.8682 19.0652C6.16465 19.1672 6.44469 19.3116 6.69954 19.4939C6.87712 19.6204 7.01969 19.7897 7.11394 19.9861C7.19181 20.1759 7.22989 20.3796 7.2258 20.5847V20.6202C7.23185 20.844 7.18232 21.0658 7.08162 21.2659C6.98093 21.4659 6.8322 21.638 6.64869 21.7668C6.18854 22.0745 5.64081 22.2249 5.0877 22.1955C4.38686 22.2071 3.69218 22.0633 3.05383 21.7744C2.40475 21.4607 1.80518 21.0539 1.27419 20.567L0.00302124 22.1423C0.684185 22.7985 1.48738 23.3156 2.3674 23.6643C3.22061 23.9924 4.12755 24.1593 5.04194 24.1564C5.63205 24.1616 6.21944 24.076 6.78344 23.9027C7.28111 23.7527 7.74301 23.5033 8.14105 23.1696C8.51914 22.8456 8.82044 22.4418 9.02324 21.9875C9.24118 21.4912 9.34956 20.954 9.34103 20.4122V20.3767C9.3496 19.9134 9.26308 19.4533 9.0868 19.0246C8.91903 18.6348 8.66833 18.286 8.35206 18.0023Z" fill="url(#paint0_radial)"/>
<path d="M17.2376 21.9748C16.8709 22.1756 16.4623 22.2881 16.0443 22.3035C15.6263 22.319 15.2105 22.2368 14.83 22.0636C14.5005 21.906 14.2064 21.6834 13.9656 21.4092C13.7182 21.1257 13.5275 20.7977 13.4037 20.4427C13.2697 20.063 13.2026 19.6631 13.2054 19.2606V19.2251C13.2036 18.8284 13.2707 18.4345 13.4037 18.0607C13.5244 17.7104 13.7089 17.3853 13.9478 17.1018C14.1777 16.8335 14.4596 16.6144 14.7766 16.4575C15.1024 16.2911 15.4631 16.2042 15.8291 16.2038C16.2971 16.1887 16.7601 16.3038 17.1664 16.5361C17.5425 16.7719 17.8846 17.0578 18.1833 17.3859L19.4774 15.9349C19.0586 15.451 18.5524 15.05 17.985 14.7528C17.3155 14.4332 16.5784 14.2801 15.8367 14.3064C15.1852 14.3003 14.5401 14.4344 13.9452 14.6996C13.3775 14.9525 12.8652 15.3145 12.4376 15.765C12.0087 16.2216 11.672 16.7564 11.4461 17.3403C11.2076 17.9479 11.0868 18.5953 11.0902 19.2479V19.2986C11.086 19.948 11.2069 20.5921 11.4461 21.1961C11.6721 21.7746 12.0089 22.3036 12.4376 22.7536C12.8641 23.1975 13.3737 23.5534 13.9376 23.8013C14.5303 24.0611 15.1716 24.1926 15.8189 24.1869C16.5799 24.2159 17.3353 24.0463 18.0104 23.6947C18.5884 23.3629 19.1045 22.9338 19.5358 22.4264L18.2647 21.1377C17.9608 21.4607 17.6154 21.7422 17.2376 21.9748Z" fill="url(#paint1_radial)"/>
<path d="M26.4027 14.3216C25.7879 14.3096 25.1843 14.4867 24.6739 14.8289C24.4452 14.9794 24.2368 15.1585 24.0536 15.3616C23.8783 15.5624 23.7185 15.7761 23.5756 16.0009V10.9021H21.4706V23.9687H23.5756V18.6416C23.5373 18.0167 23.7391 17.4008 24.14 16.9192C24.3259 16.7161 24.5539 16.5558 24.808 16.4494C25.0622 16.343 25.3365 16.2929 25.612 16.3028C25.8801 16.2875 26.1482 16.3335 26.3958 16.4372C26.6434 16.5409 26.864 16.6997 27.0408 16.9014C27.3798 17.3005 27.5493 17.8688 27.5493 18.6061V23.9636H29.6543V17.9567C29.6543 16.8473 29.373 15.9645 28.8103 15.3084C28.2476 14.6522 27.445 14.3233 26.4027 14.3216Z" fill="url(#paint2_radial)"/>
<path d="M60.3861 10.9045H58.2811V23.9712H60.3861V10.9045Z" fill="url(#paint3_radial)"/>
<path d="M65.3233 14.5193H63.2183V23.9711H65.3233V14.5193Z" fill="url(#paint4_radial)"/>
<path d="M65.392 11.011H63.1318V13.0708H65.392V11.011Z" fill="url(#paint5_radial)"/>
<path d="M70.5733 11.9243H68.4682V14.5194H67.3038V16.3813H68.4606V21.3584C68.448 21.8049 68.5125 22.2502 68.6513 22.6749C68.7611 22.9991 68.9498 23.2911 69.2004 23.5247C69.4427 23.7415 69.7314 23.9003 70.0445 23.9889C70.3884 24.0867 70.7445 24.1345 71.1021 24.131C71.451 24.1364 71.7991 24.0945 72.1368 24.0067C72.4334 23.9246 72.718 23.8044 72.9834 23.649V21.8733C72.5848 22.0842 72.1406 22.1948 71.6894 22.1955C71.3875 22.215 71.09 22.1157 70.8606 21.919C70.7528 21.7962 70.6714 21.6528 70.6211 21.4975C70.5708 21.3422 70.5528 21.1784 70.5682 21.0159V16.3813H73.019V14.5194H70.5682L70.5733 11.9243Z" fill="url(#paint6_radial)"/>
<path d="M81.4316 14.5193L79.0672 21.5358L76.4791 14.5193H74.252L78.0503 23.9711C77.9387 24.298 77.7494 24.593 77.4986 24.831C77.2856 24.992 77.0233 25.0745 76.7562 25.0644C76.5421 25.065 76.3293 25.0316 76.1257 24.9655C75.9199 24.8996 75.7208 24.8147 75.5308 24.7118L74.824 26.3226C75.1382 26.4986 75.4707 26.6398 75.8156 26.7437C76.1943 26.8504 76.5865 26.9016 76.9799 26.8959C77.3134 26.9013 77.6456 26.8534 77.9638 26.7539C78.2558 26.6554 78.5254 26.5002 78.757 26.2973C79.0188 26.0634 79.2404 25.7884 79.413 25.483C79.6368 25.0877 79.8273 24.6744 79.9824 24.2476L83.6078 14.5269L81.4316 14.5193Z" fill="url(#paint7_radial)"/>
<path d="M39.0839 20.4527C38.9652 20.805 38.7786 21.1307 38.5347 21.4116C38.2939 21.6869 37.9988 21.9097 37.6678 22.066C37.3114 22.2356 36.9211 22.3224 36.5263 22.3197C36.1432 22.3194 35.7651 22.2327 35.4203 22.066C35.0864 21.9075 34.7887 21.6821 34.5458 21.404C34.2971 21.1192 34.1024 20.7917 33.9712 20.4375C33.8319 20.0625 33.7621 19.6654 33.7653 19.2655V19.23C33.7634 18.8342 33.8269 18.4408 33.9534 18.0656C34.0694 17.7122 34.2562 17.3859 34.5026 17.1068C34.7454 16.8363 35.0402 16.6172 35.3695 16.4624C35.72 16.294 36.1042 16.2073 36.4932 16.2088C36.7762 16.2067 37.0576 16.2495 37.3271 16.3356C37.4589 15.7004 37.6905 15.0899 38.0135 14.5269C37.5324 14.3807 37.0318 14.308 36.5288 14.3113C35.8608 14.3042 35.1988 14.4382 34.5865 14.7045C34.0136 14.9576 33.4955 15.3194 33.0611 15.7699C32.1618 16.7067 31.6631 17.9557 31.6704 19.2528V19.2985C31.6672 19.9485 31.7907 20.5929 32.034 21.1959C32.3414 21.9377 32.8288 22.5917 33.4524 23.0988C34.076 23.606 34.8162 23.9506 35.6063 24.1015C36.3965 24.2525 37.2118 24.2051 37.9791 23.9636C38.7463 23.722 39.4413 23.294 40.0016 22.718C40.4363 22.2648 40.7813 21.7337 41.0186 21.1528C41.1165 20.9118 41.1947 20.6632 41.2525 20.4096C40.5202 20.213 39.845 19.8461 39.2822 19.3391C39.2768 19.7185 39.2098 20.0946 39.0839 20.4527V20.4527Z" fill="url(#paint8_radial)"/>
<path d="M54.5514 16.8784C54.5103 16.581 54.4517 16.2862 54.376 15.9956L54.3557 15.9195C54.2804 15.6443 54.1905 15.3734 54.0862 15.1078C54.0048 14.8998 53.9184 14.6918 53.8167 14.4888C53.715 14.2859 53.6438 14.1514 53.5472 13.9815C53.4506 13.8115 53.3718 13.6897 53.2777 13.5452C53.1837 13.4006 53.1023 13.2915 53.0082 13.1596C52.9142 13.0277 52.8582 12.9566 52.7794 12.8577L52.7413 12.812C52.6549 12.7055 52.5659 12.599 52.4718 12.4975L52.4566 12.4797L52.2023 12.2261L52.1744 12.1982L51.9328 11.9648L51.6634 11.7111L51.6481 11.6959L51.3939 11.4625L51.1396 11.2393L51.1218 11.2241L50.8523 10.9856L50.6464 10.808L50.5829 10.7548L50.3134 10.5239L50.1608 10.392L50.0464 10.2931L49.7769 10.0597L49.6752 9.97093L49.51 9.82634L49.2405 9.57266L49.1769 9.51432L48.9736 9.32153C48.882 9.23274 48.7905 9.14649 48.7041 9.06786L48.6354 8.99429C48.5668 8.92326 48.5007 8.85224 48.4371 8.78121C48.3736 8.71018 48.2541 8.56559 48.1676 8.45651C48.0812 8.34743 47.982 8.20284 47.8982 8.076V8.06332C47.8029 7.91101 47.718 7.75253 47.6439 7.58895C47.6185 7.53568 47.6007 7.47734 47.5778 7.42153C47.4891 7.20691 47.421 6.98437 47.3744 6.75691C47.3515 6.64022 47.3388 6.50324 47.3261 6.39162C47.3063 6.19781 47.2986 6.00295 47.3032 5.80818C47.3032 5.79042 47.3032 5.77267 47.3032 5.75237C47.3032 5.61793 47.3287 5.4987 47.3515 5.36172C47.3515 5.31606 47.3693 5.26786 47.377 5.2222C47.3846 5.17654 47.4126 5.06239 47.4329 4.98629C47.4532 4.91018 47.499 4.76305 47.5397 4.65905C47.5804 4.55504 47.6083 4.49416 47.6439 4.40538L47.6643 4.35972C47.7075 4.27093 47.7558 4.18468 47.8066 4.10605C47.8575 4.02741 47.8753 3.9995 47.9109 3.94877L47.9617 3.87774C48.0151 3.80671 48.071 3.73822 48.1295 3.67227L48.1803 3.61646C48.2657 3.52732 48.3557 3.44265 48.4498 3.36279C48.5363 3.28669 48.6278 3.21566 48.7193 3.14717C48.8108 3.07868 48.8973 3.02033 48.9888 2.96452C49.0803 2.90872 49.1668 2.85798 49.2583 2.80978C49.3498 2.76159 49.4363 2.71846 49.5278 2.67788C49.6193 2.63729 49.7083 2.5967 49.7973 2.56119L50.0668 2.46225L50.3363 2.37854L50.6057 2.30498L50.8752 2.2441L51.1447 2.19336L51.4142 2.15531C51.5286 2.14009 51.6201 2.13248 51.6837 2.12741H51.7778L51.6837 2.07414L51.4142 1.92447L51.1345 1.7951L50.8651 1.66319L50.5981 1.54143L50.3286 1.42981L50.0591 1.32834L49.7896 1.23702L49.5202 1.15585L49.2532 1.07975L48.999 1.0214L48.7295 0.975739L48.46 0.942763L48.1905 0.925006H47.921C47.8295 0.925006 47.7405 0.925006 47.6515 0.925006C47.5626 0.925006 47.471 0.940226 47.3821 0.95291C47.2931 0.965594 47.2015 0.980814 47.1126 0.998571C47.0236 1.01633 46.9321 1.03662 46.8431 1.05945H46.8049C46.727 1.08144 46.6499 1.10511 46.5736 1.13048C46.4948 1.15838 46.4185 1.18629 46.3448 1.21673L46.3092 1.23195L46.1236 1.3182L46.0422 1.35878L45.91 1.42981L45.7753 1.50845L45.7016 1.55411C45.6355 1.59724 45.5694 1.64036 45.5058 1.68602C45.4397 1.73422 45.3736 1.78495 45.31 1.83569L45.2465 1.88896L45.1219 1.99804L44.9795 2.12995L44.9389 2.17053C44.8779 2.23141 44.8194 2.29483 44.7609 2.35571L44.7126 2.40898L44.588 2.55358L44.4431 2.73368L44.4228 2.76159C44.3668 2.836 44.3135 2.90956 44.2626 2.98228L44.1762 3.11165L44.1101 3.21566C44.0575 3.29852 44.0084 3.38308 43.9626 3.46933L43.9092 3.56573L43.8228 3.72808C43.7745 3.82193 43.7287 3.91326 43.688 3.9995L43.6423 4.10097L43.5609 4.28615C43.5126 4.4003 43.4745 4.50177 43.4414 4.58802C43.4084 4.67427 43.3906 4.73515 43.3728 4.78842C43.355 4.84169 43.3397 4.8975 43.3347 4.91272C43.3347 4.75291 43.3524 4.59817 43.3702 4.44596V4.4003C43.3855 4.27347 43.4033 4.14663 43.4262 4.02741C43.4491 3.90818 43.477 3.77374 43.5075 3.65197C43.538 3.53021 43.5711 3.42113 43.6067 3.30952L43.6397 3.21059C43.6652 3.13702 43.6931 3.06599 43.7185 2.99497C43.744 2.92394 43.7999 2.7971 43.8431 2.70324L43.9067 2.57133L43.9779 2.43435C44.0236 2.3481 44.0719 2.26185 44.1202 2.18068L44.1762 2.09189L44.2728 1.94476C44.3236 1.86866 44.377 1.79256 44.4304 1.719L44.4431 1.70124C44.494 1.63529 44.5423 1.56933 44.5931 1.50845L44.7101 1.37147L44.7634 1.31059C44.8228 1.24463 44.8812 1.18206 44.9389 1.12287L44.977 1.08482L45.1219 0.9453L45.2465 0.831147L45.31 0.775341L45.5007 0.615527H45.516L45.699 0.478545L45.7855 0.415127L45.8999 0.336488L46.055 0.237557L46.1083 0.207116C46.2227 0.138625 46.299 0.100574 46.3219 0.0878906C46.2355 0.0878906 46.149 0.103111 46.0677 0.113257L45.8134 0.143699H45.7982L45.5617 0.181749H45.5287L45.3177 0.229947L45.2617 0.24263L45.0762 0.288291L44.9948 0.313658L44.8423 0.361855L44.7279 0.39737L44.6109 0.440494L44.4609 0.496302L44.3821 0.526742L44.1914 0.607917L44.1584 0.623136C44.0846 0.656114 44.0109 0.689091 43.9372 0.724605H43.9219L43.7211 0.831147L43.6524 0.866661L43.5075 0.947837L43.383 1.02394L43.2991 1.07467L43.116 1.19643L43.0957 1.20912C43.027 1.25478 42.9609 1.30044 42.8948 1.34864L42.8491 1.38415L42.7016 1.50084L42.5821 1.5947L42.5084 1.65812L42.3203 1.823L42.1448 1.99042L42.0533 2.08175L41.9643 2.17053C41.9033 2.23395 41.8474 2.29737 41.7889 2.36332L41.6211 2.55611L41.5194 2.68295L41.4533 2.76412C41.3974 2.83515 41.3465 2.91125 41.2932 2.98482L41.2499 3.0457L41.1355 3.21566C41.0847 3.2943 41.0338 3.37294 40.9855 3.45411C40.9372 3.53528 40.8915 3.619 40.8457 3.70778C40.7999 3.79657 40.7593 3.87267 40.716 3.96145V3.97921C40.6703 4.07053 40.6271 4.16439 40.5864 4.25825C40.5457 4.35211 40.5025 4.45357 40.4644 4.55504V4.5728C40.4262 4.67173 40.3932 4.7732 40.3601 4.87213C40.3271 4.97106 40.2915 5.0979 40.261 5.21205C40.2305 5.3262 40.2152 5.38455 40.1974 5.46572C40.1974 5.50124 40.1822 5.53675 40.1745 5.57227C40.1474 5.70417 40.1245 5.83693 40.1059 5.97053C40.0872 6.10413 40.0711 6.2521 40.0576 6.41445C40.0576 6.58188 40.0398 6.7493 40.0423 6.9218C40.0453 7.12783 40.0589 7.33358 40.083 7.53822C40.1083 7.76344 40.1465 7.98704 40.1974 8.20791C40.2127 8.27133 40.2305 8.33728 40.2483 8.4007C40.3082 8.62543 40.3812 8.8465 40.4669 9.06278C40.5469 9.25916 40.6368 9.45135 40.7364 9.63862C40.7796 9.71979 40.8203 9.8035 40.866 9.89229C40.9118 9.98107 40.9576 10.0445 41.0033 10.1181C41.0898 10.2576 41.1788 10.3895 41.2728 10.5138C41.316 10.5721 41.3618 10.6305 41.4076 10.6863L41.5423 10.8486C41.6304 10.9501 41.7203 11.0473 41.8118 11.1404C41.8745 11.2046 41.9389 11.2655 42.005 11.323L42.0813 11.3915C42.1703 11.4676 42.2592 11.5412 42.3508 11.6122L42.4677 11.6959L42.6177 11.8024C42.7025 11.8582 42.7872 11.9124 42.8719 11.9648C42.9601 12.0172 43.0499 12.0663 43.1414 12.1119L43.238 12.1601L43.4109 12.2438L43.594 12.3275L43.6779 12.363L43.9321 12.4645L44.2016 12.5609L44.2524 12.5787L44.4685 12.6497L44.5779 12.6827L44.738 12.7309L44.8982 12.7765L45.0075 12.807L45.216 12.8628L45.277 12.878L45.5312 12.9414H45.5465L45.816 13.0074H45.8439L46.0855 13.0657L46.1541 13.0835L46.3524 13.1317L46.4643 13.1596L46.6194 13.1976L46.7744 13.2357L46.8863 13.2636L47.0871 13.3143L47.1558 13.3321L47.41 13.398H47.4329L47.7024 13.4716H47.7304L47.9719 13.5426L48.0507 13.568L48.2414 13.6263L48.3761 13.6695L48.5108 13.7126L48.7041 13.7785L48.7803 13.8064L49.0346 13.8978L49.3041 14.0018L49.3625 14.0246L49.5736 14.1108L49.7083 14.1667L49.843 14.225L50.0617 14.3214L50.1125 14.3442C50.2041 14.3873 50.2879 14.4305 50.3668 14.4736L50.41 14.4939L50.6362 14.6182L50.7913 14.7044L50.9057 14.778C50.9998 14.8363 51.0888 14.8947 51.1752 14.9556L51.2032 14.9759C51.2871 15.0342 51.3684 15.0951 51.4447 15.156C51.521 15.2169 51.5896 15.2727 51.6583 15.3335L51.7142 15.3843C51.8091 15.4705 51.8989 15.5551 51.9837 15.6379C52.0752 15.7369 52.1642 15.8333 52.2379 15.9347C52.3344 16.0568 52.4243 16.1838 52.5074 16.3152C52.741 16.6815 52.9176 17.0809 53.0311 17.4999L53.0464 17.5557C53.1102 17.8053 53.1527 18.0599 53.1735 18.3167C53.1887 18.504 53.1929 18.6921 53.1862 18.8799C53.1862 19.0524 53.1659 19.2071 53.1481 19.3415C53.1303 19.476 53.0998 19.6434 53.0769 19.7373C53.0642 19.7931 53.0515 19.8362 53.0464 19.8641V19.8895C53.0464 19.7905 53.0286 19.6967 53.0184 19.6003C52.9907 19.3297 52.9457 19.0611 52.8837 18.7962C52.8549 18.6761 52.8227 18.5594 52.7871 18.4461C52.7139 18.2108 52.6239 17.981 52.5176 17.7586C52.4375 17.5895 52.3475 17.4251 52.2481 17.2665C52.1648 17.1335 52.0749 17.0048 51.9786 16.8809C51.9193 16.8048 51.8591 16.7321 51.7981 16.6628L51.7117 16.5689C51.6252 16.4751 51.5362 16.3863 51.4422 16.3026C51.3481 16.2189 51.3227 16.1986 51.2642 16.1478L51.1752 16.0743C51.0862 16.0058 50.9973 15.9398 50.9057 15.8764L50.8269 15.8206L50.6388 15.7014L50.4354 15.5847L50.3693 15.5492C50.2803 15.501 50.1913 15.4578 50.0998 15.4147L50.0693 15.3995L49.8329 15.2955L49.721 15.2498L49.5634 15.1889L49.388 15.1281L49.2939 15.0976L49.0651 15.0291H49.0244L48.7549 14.9606L48.5007 14.9048H48.46L48.2312 14.8668H48.1625L47.9642 14.8414H47.8982H47.8753L47.6973 14.8237H47.588H47.4278H47.3083H47.166H46.1948H46.088H45.9405H45.8185L45.6558 14.8059L45.549 14.7907L45.3609 14.7628L45.2821 14.7501C45.2033 14.7349 45.1295 14.712 45.0507 14.6918H45.0126C44.9211 14.6664 44.8321 14.641 44.7431 14.6106H44.7279C44.644 14.5801 44.5575 14.5522 44.4736 14.5167H44.4482L44.3897 14.4914L44.3135 14.4584L44.2067 14.4051L44.0262 14.3138L43.9372 14.2605C43.8457 14.2081 43.7558 14.1514 43.6677 14.0906L43.627 14.0626C43.5491 14.0085 43.4736 13.9527 43.4008 13.8952C43.3279 13.8377 43.2516 13.7735 43.1719 13.7024L43.1313 13.6669C43.0397 13.5832 42.9482 13.4944 42.8618 13.4132C42.7753 13.3321 42.6787 13.2052 42.5923 13.0962L42.5643 13.0581C42.5287 13.0124 42.4931 12.9668 42.4601 12.9186C42.427 12.8704 42.3686 12.7816 42.3253 12.7131C42.115 12.3816 41.9443 12.0265 41.8169 11.6553H41.7838C41.7219 11.6655 41.6607 11.6799 41.6008 11.6984L41.5143 11.7314C41.4813 11.7314 41.4482 11.7542 41.4177 11.7695L41.3771 11.7948C41.3323 11.8194 41.289 11.8465 41.2474 11.876L41.1737 11.9293C41.1076 11.9821 41.0463 12.0407 40.9906 12.1043V12.1195C40.9352 12.1839 40.885 12.2526 40.8406 12.325C40.7952 12.399 40.7553 12.4761 40.7211 12.5558L40.7059 12.5964C40.6627 12.7059 40.6286 12.8187 40.6042 12.9338C40.5733 13.0731 40.5546 13.2149 40.5482 13.3574C40.542 13.4647 40.542 13.5723 40.5482 13.6796L40.4644 13.743L40.4466 13.7557L40.3169 13.8521L40.266 13.8876L40.1771 13.951L40.0703 14.0398C40.0144 14.0889 39.9601 14.1404 39.9076 14.1946L39.8872 14.2174C39.8266 14.2817 39.7697 14.3494 39.7169 14.4203V14.4203L39.5923 14.4787L39.5033 14.5877C39.4474 14.6588 39.394 14.7323 39.3432 14.8059L39.3254 14.8287C39.2771 14.8972 39.2339 14.9683 39.1881 15.0393C39.1423 15.1103 39.0991 15.1889 39.0559 15.265L39.0432 15.2904C38.9957 15.3784 38.9508 15.4688 38.9084 15.5618C38.8661 15.6549 38.8254 15.7504 38.7864 15.8485C38.7457 15.9533 38.7093 16.0607 38.6771 16.1707C38.6449 16.2806 38.6144 16.399 38.5856 16.5258C38.5703 16.5918 38.5551 16.6602 38.5423 16.7287C38.5299 16.7991 38.5239 16.8704 38.5246 16.9418C38.5153 17.0416 38.5343 17.142 38.5792 17.2316C38.6241 17.3213 38.6932 17.3966 38.7788 17.4492V17.4492C38.8293 17.4731 38.8834 17.4885 38.9389 17.4948L39.0432 17.5202H39.0889L39.3127 17.5684L39.394 17.5811L39.5822 17.609H39.6864L39.8517 17.6242H39.9686H40.111H40.2406H40.3881H40.5076L40.6576 17.6064L40.7643 17.5938H40.805L40.9245 17.5709L41.011 17.5532L41.1915 17.51L41.2525 17.4948L41.4584 17.4339H41.4864L41.7152 17.3502L41.9287 17.2589L41.9821 17.2335L42.1448 17.1498L42.2491 17.094L42.3559 17.0306L42.5186 16.9291L42.5618 16.8987L42.7219 16.7871L42.7626 16.7541L42.7881 16.7313C42.844 16.6881 42.8974 16.6399 42.9533 16.5943L43.0575 16.508L43.144 16.4294C43.205 16.3711 43.2635 16.3051 43.3219 16.2442C43.3702 16.1935 43.4211 16.1453 43.4669 16.0946L43.4999 16.0692L43.5914 16.0007H43.6041C43.6041 16.0337 43.6041 16.0692 43.5914 16.1022C43.5787 16.1351 43.5914 16.1833 43.5711 16.2239C43.5488 16.3443 43.5182 16.4629 43.4796 16.5791C43.4456 16.6811 43.4057 16.781 43.3601 16.8784L43.3245 16.952C43.2923 17.0162 43.2575 17.078 43.2202 17.1371C43.1725 17.2167 43.1208 17.2937 43.0652 17.368V17.368C43.0143 17.4339 42.9584 17.4974 42.9025 17.5557L42.7957 17.6622L42.7194 17.7307C42.6577 17.7839 42.5932 17.8339 42.5262 17.8804V17.8804C42.4591 17.9265 42.3895 17.9689 42.3177 18.0072L42.2592 18.0402C42.2067 18.0673 42.1533 18.0918 42.0991 18.1138L41.9923 18.1518L41.9109 18.1797H41.8652L41.7228 18.2178L41.6262 18.2431L41.4559 18.2812L41.3821 18.299L41.1864 18.3395H41.1355L40.9194 18.3776H40.8864L40.6525 18.4106H40.6321L40.3779 18.4334C40.3136 18.4386 40.249 18.4386 40.1847 18.4334C40.2489 18.4936 40.3178 18.5488 40.3906 18.5983L40.4999 18.6719L40.6601 18.7708C40.7288 18.8114 40.8025 18.8494 40.8838 18.89L40.9296 18.9128C41.0135 18.9534 41.1025 18.994 41.1991 19.0321L41.2372 19.0473C41.311 19.0752 41.3872 19.1031 41.4686 19.1285L41.5652 19.1564L41.7381 19.202L41.8779 19.2299L42.0076 19.2553L42.1753 19.2756L42.277 19.2883H42.4601H42.816L42.9965 19.2756H43.083L43.2508 19.2528L43.3524 19.2325L43.4974 19.1995L43.6219 19.1716H43.6448C43.6753 19.1716 43.7058 19.1488 43.7338 19.1361C43.7869 19.1166 43.8387 19.0937 43.8889 19.0676L43.9524 19.0321C44.0224 18.9901 44.0895 18.9434 44.1533 18.8925C44.2179 18.8417 44.2799 18.7875 44.3389 18.7302L44.4228 18.6465L44.5168 18.5425C44.5753 18.474 44.6312 18.4055 44.6846 18.3345C44.738 18.2634 44.7863 18.1899 44.8346 18.1163C44.8829 18.0427 44.9134 17.9869 44.949 17.9261L44.977 17.8829C45.0253 17.8018 45.0762 17.7231 45.1295 17.647C45.1829 17.5709 45.1855 17.5582 45.2185 17.5176C45.2516 17.4771 45.2694 17.4618 45.2923 17.4314C45.3482 17.3629 45.4041 17.2944 45.4626 17.231L45.4855 17.2031C45.5363 17.1498 45.5922 17.1067 45.6456 17.056L45.7524 16.9596C45.7804 16.9367 45.8033 16.9114 45.8312 16.8885C45.8592 16.8657 45.9558 16.8048 46.0194 16.7617H46.0346C46.1033 16.716 46.1694 16.6704 46.2405 16.6298L46.2888 16.607C46.3448 16.5765 46.4007 16.5512 46.4592 16.5233L46.5583 16.4751L46.6804 16.4243L46.8253 16.3761L46.9117 16.3457C46.9727 16.3254 47.0312 16.3051 47.0922 16.2899H47.1482C47.2168 16.2721 47.288 16.2594 47.3617 16.2468H47.3948L47.6287 16.2112H47.649C47.7304 16.2112 47.8143 16.1935 47.9032 16.1884H48.0024L47.9109 16.2112H47.8931C47.8193 16.229 47.7456 16.2493 47.6719 16.2696L47.6261 16.2848C47.5651 16.3051 47.5015 16.3254 47.4405 16.3482L47.3566 16.3837L47.2168 16.4446L47.0897 16.508L47.0007 16.5537L46.8202 16.6577L46.7897 16.678C46.721 16.7211 46.6524 16.7668 46.5863 16.815L46.5507 16.8429C46.4973 16.8835 46.4439 16.9241 46.3905 16.9672L46.2812 17.0636L46.2024 17.1346C46.1414 17.193 46.0829 17.2564 46.0244 17.3198L45.9761 17.3705C45.9355 17.4162 45.9024 17.4644 45.8643 17.5126C45.8261 17.5608 45.788 17.6039 45.755 17.6496L45.7016 17.7257C45.6473 17.8035 45.5965 17.8821 45.549 17.9616L45.4855 18.0732C45.4575 18.1214 45.4346 18.1721 45.4092 18.2229C45.3634 18.3176 45.3211 18.4131 45.2821 18.5095C45.2592 18.5653 45.2363 18.6186 45.216 18.6744C45.1956 18.7302 45.1855 18.7759 45.1702 18.8266C45.1346 18.945 45.105 19.0642 45.0812 19.1843C44.9413 19.8885 44.9887 20.617 45.2185 21.2974C45.2911 21.5066 45.3813 21.7094 45.488 21.9036C45.6348 22.1783 45.815 22.4339 46.0244 22.6646V22.6646C46.088 22.7331 46.149 22.8016 46.2177 22.8676L46.2838 22.9259C46.3372 22.9716 46.388 23.0198 46.4414 23.0629L46.2838 23.0046L46.1795 22.9716C46.1287 22.9564 46.0727 22.9437 46.0168 22.9335L45.877 22.9132H45.7473H45.5973H45.4041H45.3304L45.2109 22.9259L45.0762 22.9462L44.9414 22.9767L44.8321 23.0046C44.7762 23.0223 44.7253 23.0426 44.6719 23.0629L44.6033 23.0883C44.5353 23.1183 44.4691 23.1522 44.405 23.1897H44.3897C44.3198 23.2327 44.2527 23.2801 44.1889 23.3318L44.138 23.3749C44.0897 23.4155 44.0465 23.4586 44.0033 23.5018C43.9559 23.5502 43.9109 23.601 43.8685 23.654L43.8329 23.6996C43.777 23.7749 43.7261 23.8537 43.6804 23.9355C43.6499 23.9888 43.6245 24.0421 43.6016 24.0903C43.5787 24.1385 43.5635 24.174 43.5482 24.212C43.5123 24.3001 43.4834 24.3909 43.4618 24.4835L43.5991 24.5139L43.7109 24.5367L43.866 24.5672L44.0109 24.5925L44.1329 24.6128L44.3084 24.6407L44.4024 24.656L44.6033 24.6839H44.6719L44.8931 24.7118H44.9389L45.1804 24.7371H45.2084L45.4626 24.76L45.7321 24.7777H45.9863H46.5482H46.8024H46.8253H47.0795H47.1024L47.3566 24.7549H47.3719L47.6261 24.7295L47.8804 24.694L48.1346 24.6534H48.16L48.3837 24.6128H48.4295L48.6278 24.5672L48.6964 24.552L48.8693 24.5063L48.9659 24.4809L49.1083 24.4403L49.2329 24.3998L49.3422 24.3642L49.4134 24.3414L49.5024 24.3135L49.5761 24.2907L49.7693 24.2298L49.81 24.2171L50.0363 24.141L50.2651 24.0548L50.3007 24.0421L50.4913 23.966L50.5676 23.9305L50.7125 23.8645L50.8371 23.8087L50.9337 23.763L51.1066 23.6692L51.1473 23.6464C51.2184 23.6083 51.2922 23.5702 51.3608 23.5297H51.3735C51.4396 23.4916 51.5032 23.4485 51.5667 23.4079L51.643 23.3597L51.7727 23.276L51.91 23.1745L51.971 23.1289C52.0371 23.0807 52.1057 23.0325 52.1693 22.9817C52.2328 22.931 52.2913 22.8803 52.3498 22.8295L52.4362 22.756L52.5379 22.6646C52.5964 22.6114 52.6498 22.5556 52.7057 22.5023L52.721 22.4871C52.782 22.4262 52.8405 22.3653 52.8989 22.3019L52.9727 22.2182L53.0718 22.1066C53.1303 22.0381 53.1837 21.9696 53.2396 21.8986C53.293 21.8275 53.3489 21.759 53.3998 21.688C53.4506 21.617 53.471 21.5815 53.5065 21.5257L53.5549 21.4546C53.6057 21.3751 53.6557 21.2906 53.7049 21.201L53.776 21.0741C53.7989 21.031 53.8243 20.9904 53.8472 20.9473C53.8955 20.856 53.9362 20.7646 53.9794 20.6708C53.9998 20.6251 54.0226 20.5795 54.043 20.5338C54.0633 20.4881 54.0837 20.4323 54.104 20.3816C54.1447 20.2801 54.1854 20.1787 54.2209 20.0747C54.2565 19.9707 54.2845 19.8844 54.3125 19.788L54.3252 19.7474C54.3582 19.6282 54.3887 19.509 54.4142 19.3872C54.4396 19.2654 54.4675 19.1335 54.4879 18.9966C54.5082 18.8596 54.5286 18.7124 54.5438 18.5704C54.5591 18.4283 54.5692 18.2533 54.5743 18.0935C54.5794 17.9337 54.5743 17.7307 54.5743 17.5506C54.6048 17.3198 54.5921 17.0991 54.5514 16.8784ZM40.9804 15.3564C40.9832 15.3834 40.9832 15.4106 40.9804 15.4375V15.4375C40.9732 15.4748 40.9603 15.5107 40.9423 15.5441C40.9214 15.5832 40.8939 15.6184 40.861 15.6481C40.8137 15.6936 40.7548 15.7252 40.6906 15.7394H40.6372C40.5545 15.7442 40.4727 15.7199 40.4059 15.6709C40.3825 15.654 40.3612 15.6344 40.3423 15.6126C40.3036 15.5678 40.2755 15.5149 40.2601 15.4578C40.2447 15.4007 40.2424 15.3409 40.2533 15.2828C40.2744 15.1886 40.3285 15.1049 40.4059 15.0469C40.4424 15.0197 40.4838 14.9999 40.5279 14.9885H40.5457C40.6332 14.9746 40.7228 14.9907 40.7999 15.0342L40.8304 15.0545C40.8777 15.09 40.9161 15.136 40.9423 15.1889C40.9698 15.2424 40.9846 15.3014 40.9855 15.3614L40.9804 15.3564Z" fill="url(#paint9_radial)"/>
</g>
<defs>
<radialGradient id="paint0_radial" cx="0" cy="0" r="1" gradientUnits="userSpaceOnUse" gradientTransform="translate(-0.155215 24.2727) scale(22.8104 13.3444)">
<stop stop-color="#2B3990"/>
<stop offset="1" stop-color="#1B75BC"/>
</radialGradient>
<radialGradient id="paint1_radial" cx="0" cy="0" r="1" gradientUnits="userSpaceOnUse" gradientTransform="translate(10.947 24.2791) scale(20.6296 10.2291)">
<stop stop-color="#2B3990"/>
<stop offset="1" stop-color="#1B75BC"/>
</radialGradient>
<radialGradient id="paint2_radial" cx="0" cy="0" r="1" gradientUnits="userSpaceOnUse" gradientTransform="translate(21.3319 24.0863) scale(19.9897 13.5193)">
<stop stop-color="#2B3990"/>
<stop offset="1" stop-color="#1B75BC"/>
</radialGradient>
<radialGradient id="paint3_radial" cx="0" cy="0" r="1" gradientUnits="userSpaceOnUse" gradientTransform="translate(58.2454 24.0888) scale(5.1418 13.5193)">
<stop stop-color="#2B3990"/>
<stop offset="1" stop-color="#1B75BC"/>
</radialGradient>
<radialGradient id="paint4_radial" cx="0" cy="0" r="1" gradientUnits="userSpaceOnUse" gradientTransform="translate(63.1826 24.0562) scale(5.14181 9.77924)">
<stop stop-color="#2B3990"/>
<stop offset="1" stop-color="#1B75BC"/>
</radialGradient>
<radialGradient id="paint5_radial" cx="0" cy="0" r="1" gradientUnits="userSpaceOnUse" gradientTransform="translate(63.0935 13.0893) scale(5.52064 2.13117)">
<stop stop-color="#2B3990"/>
<stop offset="1" stop-color="#1B75BC"/>
</radialGradient>
<radialGradient id="paint6_radial" cx="0" cy="0" r="1" gradientUnits="userSpaceOnUse" gradientTransform="translate(67.207 24.2413) scale(13.9599 12.63)">
<stop stop-color="#2B3990"/>
<stop offset="1" stop-color="#1B75BC"/>
</radialGradient>
<radialGradient id="paint7_radial" cx="0" cy="0" r="1" gradientUnits="userSpaceOnUse" gradientTransform="translate(74.0935 27.0078) scale(22.8525 12.8058)">
<stop stop-color="#2B3990"/>
<stop offset="1" stop-color="#1B75BC"/>
</radialGradient>
<radialGradient id="paint8_radial" cx="0" cy="0" r="1" gradientUnits="userSpaceOnUse" gradientTransform="translate(31.508 24.2768) scale(23.4053 10.219)">
<stop stop-color="#2B3990"/>
<stop offset="1" stop-color="#1B75BC"/>
</radialGradient>
<radialGradient id="paint9_radial" cx="0" cy="0" r="1" gradientUnits="userSpaceOnUse" gradientTransform="translate(38.25 25) scale(39.25 25.5452)">
<stop stop-color="#2B3990"/>
<stop offset="1" stop-color="#1B75BC"/>
</radialGradient>
<clipPath id="clip0">
<rect width="83.7766" height="26.9282" fill="white"/>
</clipPath>
</defs>
</svg>
